<?xml version="1.0" encoding="UTF-8"?>
<svg id="Layer_1" data-name="Layer 1" xmlns="http://www.w3.org/2000/svg" viewBox="0 0 530.82 105.21">
  <defs>
    <style>
      .cls-1 {
        fill: #11173f;
      }
    </style>
  </defs>
  <path class="cls-1" d="M99.51.33v20.86h-48.32c-2.46,0-8.61,2.6-10.88,3.89-22.29,12.67-20.11,49.7,5.12,57.76.83.26,4.45,1.27,5.02,1.27h26.3v-21.93h-23.51v-18.7h40.11c1.73,0,4.52,3.21,5.22,4.68.22.46,1.31,3.53,1.31,3.77v53.04h-53.91C-16.82,97.97-14.42,5.95,47.84.33h51.67Z"/>
  <path class="cls-1" d="M289.05.33v20.32l-.56.54h-43.28c-2.46,0-8.61,2.6-10.88,3.89-22.57,12.83-20.23,49.86,5.38,57.87.8.25,4.2,1.16,4.76,1.16h44.21v20.86h-48.31c-62.97-7.53-60.17-98.82,2.24-104.64h46.45Z"/>
  <path class="cls-1" d="M196.52.33v20.86h-40.11c-2.08,0-8.38,2.57-10.37,3.67-22.33,12.29-20.41,49.76,4.68,57.92,1.14.37,4.33,1.34,5.32,1.34h40.3l.56.54v20.32h-45.7c-62.88-7.46-60.6-98.68,1.86-104.64h43.46Z"/>
  <rect class="cls-1" x="242.03" y="43.48" width="25" height="18.7"/>
  <path class="cls-1" d="M365.91,55.7v-12.95c.97.16,3.69-.48,4.05.59l-.3,19.39-3.97-.18-9.86-13.33v13.13l-.62.48c-.47.1-.95.08-1.43.08-.76,0-1.58.12-2.05-.56v-19.06c.8-.86,3.89-.76,4.69-.2l9.49,12.61Z"/>
  <path class="cls-1" d="M408.07,13.27V.87l.62-.48c.47-.1.95-.08,1.43-.08.76,0,1.58-.12,2.05.56v19.06c-.58.78-3.41.76-4.1.36l-10.08-13.48v13.66c-.97-.16-3.69.48-4.05-.59l.37-19.5c1.44.01,3.3-.46,4.45.46l9.3,12.43Z"/>
  <path class="cls-1" d="M319.64,85.37c.27-.85,3.62-.63,4.48-.36l9.33,12.76v-12.41c.98-1.02,2.77-.38,4.1-.54v20.14c-1.37-.13-3.05.43-4.13-.51l-9.67-13.15v13.13c-.98,1.02-2.77.38-4.1.54v-19.6Z"/>
  <path class="cls-1" d="M386.8,85.37c.27-.85,3.62-.63,4.48-.36l9.33,12.76v-12.41c.98-1.02,2.77-.38,4.1-.54v20.14c-1.37-.13-3.05.43-4.13-.51l-9.67-13.15v13.13c-.98,1.02-2.77.38-4.1.54v-19.6Z"/>
  <path class="cls-1" d="M486.79,43.3c.27-.85,3.62-.63,4.48-.36l9.33,12.76v-12.41c.98-1.02,2.77-.38,4.1-.54v20.14c-1.37-.13-3.05.43-4.13-.51l-9.67-13.15v13.13c-.98,1.02-2.77.38-4.1.54v-19.6Z"/>
  <path class="cls-1" d="M324.62,60.25c-10.05-9.22,4.85-24.57,15.12-14.76s-4.82,24.21-15.12,14.76ZM330.36,46.44c-6.41,1.29-6.49,11.95.69,12.83,10.57,1.29,9.94-14.97-.69-12.83Z"/>
  <path class="cls-1" d="M334.01.33c1.22.2,3.19,1.72,3.92,2.7,2.72,3.66,1.25,7.21-2.15,9.7l3.64,7.74-4.11-.17-3.41-6.6-4.42-.06v6.29c-.98,1.02-2.77.38-4.1.54V.33c3.22.36,7.56-.49,10.63,0ZM327.48,10.04c2.58.22,8.35.38,7.68-3.61-.13-.8-1.54-2.5-2.27-2.5h-5.41v6.11Z"/>
  <path class="cls-1" d="M471.68,84.83c1.22.2,3.19,1.72,3.92,2.7,2.72,3.66,1.25,7.21-2.15,9.7l3.64,7.74-4.11-.17-3.41-6.6-4.42-.06v6.29c-.98,1.02-2.77.38-4.1.54v-20.14c3.22.36,7.56-.49,10.63,0ZM465.15,94.54c2.58.22,8.35.38,7.68-3.61-.13-.8-1.54-2.5-2.27-2.5h-5.41v6.11Z"/>
  <path class="cls-1" d="M362.17.33v3.6h-10.26c-1.09,1.04-.37,2.93-.56,4.32h8.02c.88.77.88,2.82,0,3.6h-8.02v5.03h11.19c-.14,1.18.46,2.74-.56,3.6h-14.18l-.56-.54V.87l.56-.54h14.36Z"/>
  <path class="cls-1" d="M311.06,84.83v3.6h-10.26c-1.09,1.04-.37,2.93-.56,4.32h8.02c.88.77.88,2.82,0,3.6h-8.02v5.03h11.19c-.14,1.18.46,2.74-.56,3.6h-14.18l-.56-.54v-19.06l.56-.54h14.36Z"/>
  <path class="cls-1" d="M452.47,88.43h-10.82v4.32h8.02c1.1.93.45,2.44.19,3.6h-8.21v5.03h10.63c.88.77.88,2.82,0,3.6h-14.18l-.56-.54v-19.06l.56-.54h13.8c1.02.86.42,2.41.56,3.6Z"/>
  <path class="cls-1" d="M374.86,3.92v4.32h8.21v3.6h-8.21v5.03h10.82v3.6h-14.92V.33h14.36c.88.77.88,2.82,0,3.6h-10.26Z"/>
  <path class="cls-1" d="M418.51,88.43v4.32h8.21v3.6h-8.21v5.03h10.82v3.6h-14.92v-20.14h14.36c.88.77.88,2.82,0,3.6h-10.26Z"/>
  <path class="cls-1" d="M402.47,42.76l3.77.21c.96,1.31-.08,10.75.35,13.26.59,3.43,5.68,4.66,7.76,1.76.27-.38,1.18-2.51,1.18-2.82v-12.41l3.49.05c.48.12.53.44.61.85.37,1.91.19,8.62,0,10.78-.56,6.02-5.5,10.43-11.82,8.16-1.89-.68-5.34-3.64-5.34-5.64v-14.2Z"/>
  <path class="cls-1" d="M490.8,84.57c1.93-.24,3.27-.01,5.04.71,3.15,1.28,4.54,2.74,1.15,4.93-1.77-1.41-5.36-3.43-7.43-1.43-3,2.9,4.74,4.23,6.43,4.99,3.51,1.57,5.21,4.45,3.31,8-2.75,5.13-12.28,4.16-15.04-.57l2.38-2.31c.7-.12,3.83,4.2,7.57,2.28,1.03-.53,1.81-1.62,1.46-2.77-.79-2.58-9.65-2.27-10.67-6.99-.84-3.91,2.02-6.36,5.79-6.84Z"/>
  <path class="cls-1" d="M383.9,46.44c-2.14,4.02,4.5,4.13,7.2,5.66,3.98,2.25,4.38,6.55.73,9.35-3.28,2.52-8.03,2.08-11.35-.19-3.07-2.11-1.84-2.56.53-4.41,1.8,1.99,7.44,4.33,8.81.85,1.24-3.17-5.33-3.8-7.51-5.03-6.11-3.46-2.84-9.92,3.54-10.28,2.92-.17,5.61,1.17,7.49,3.25l-1.93,2.49c-2.41-1.4-4.55-3.09-7.51-1.67Z"/>
  <path class="cls-1" d="M363.67,102.99c-4.91,3.58-11.77,2.77-15.45-2.01-6.56-8.53,2.89-19.62,12.84-15.61.56.22,2.26,1.12,2.2,1.74l-2.01,2.67c-3.44-2.43-9.02-1.65-10.66,2.4-2.33,5.77,3.28,11.37,9.3,8.78l.47-4.94,3.3-.05v7.01Z"/>
  <path class="cls-1" d="M314.04,18.49c-7.1,5.34-17.6.44-17.57-8.27.03-7.32,8.96-12.73,15.72-9.01.73.4,1.66.77,1.42,1.73l-1.99,2.33c-5.4-3.45-11.87-.08-10.98,6.36.58,4.17,6.08,7.07,9.86,4.53l.18-4.68h3.36v7.01Z"/>
  <path class="cls-1" d="M530.82,60.92c-7.1,5.34-17.6.44-17.57-8.27.03-7.32,8.96-12.73,15.72-9.01.73.4,1.66.77,1.42,1.73l-1.99,2.33c-5.4-3.45-11.87-.08-10.98,6.36.58,4.17,6.08,7.07,9.86,4.53l.18-4.68h3.36v7.01Z"/>
  <path class="cls-1" d="M313.23,44.26c.49.81-.87,2.41-1.29,3.2-3.07-.99-6.23-2.07-9.08.16-6.63,5.2,1.56,16.19,8.76,10.26l1.89,3.22c-5.09,3.81-12.66,2.18-15.71-3.23-4.76-8.45,3.35-17.61,12.82-14.87.41.12,2.51,1.09,2.61,1.26Z"/>
  <path class="cls-1" d="M464.41,42.76v3.6h-5.97v16.54c-1.33-.16-3.12.48-4.1-.54v-16h-5.6v-3.6h15.67Z"/>
  <path class="cls-1" d="M433.06,42.76v16.54h8.39c.88.77.88,2.82,0,3.6h-11.94l-.56-.54v-19.06c.98-1.02,2.77-.38,4.1-.54Z"/>
  <path class="cls-1" d="M472.99,62.9v-20.14c.97.16,3.69-.48,4.05.59l-.11,19.21-3.94.34Z"/>
  <path class="cls-1" d="M372.99,104.97v-20.14l3.94.34.11,19.21c-.36,1.07-3.08.43-4.05.59Z"/>
</svg>